<svg xmlns="http://www.w3.org/2000/svg" viewBox="0 0 1200 630" width="1200" height="630"><rect width="1200" height="630" fill="#F2F3F5"/><g stroke="#D3D7E0" stroke-width="1.6" fill="none"><path d="M0,556 L150,470 L300,556 L450,470 L600,556 L750,470 L900,556 L1050,470 L1200,556"/></g><g fill="#C6CBD6"><circle cx="150" cy="470" r="5"/><circle cx="300" cy="556" r="5"/><circle cx="450" cy="470" r="5"/><circle cx="600" cy="556" r="5"/></g><g fill="#818CF8"><circle cx="750" cy="470" r="5"/><circle cx="900" cy="556" r="5"/><circle cx="1050" cy="470" r="5"/></g><svg x="88" y="64" width="430" height="145" viewBox="6 4 220 74"><text x="92" y="52" text-anchor="end" font-family="IBM Plex Sans, sans-serif" font-size="45.5" font-weight="500" fill="#12151C">Cro</text><g transform="translate(96,20)"><path d="M0,0 L10.5,32 L21,6 L31.5,32 L36.75,16" fill="none" stroke="#12151C" stroke-width="1.9"/><path d="M36.75,16 L42,0 L52.5,26 L63,0 L73.5,32" fill="none" stroke="#4F46E5" stroke-width="1.9"/><circle cx="0" cy="0" r="4.2" fill="#12151C"/><circle cx="10.5" cy="32" r="3.2" fill="#12151C"/><circle cx="21" cy="6" r="2.2" fill="#12151C"/><circle cx="31.5" cy="32" r="4.2" fill="#12151C"/><circle cx="42" cy="0" r="3.2" fill="#4F46E5"/><circle cx="52.5" cy="26" r="4.2" fill="#4F46E5"/><circle cx="63" cy="0" r="2.2" fill="#4F46E5"/><circle cx="73.5" cy="32" r="3.2" fill="#4F46E5"/><circle cx="36.75" cy="16" r="3.3" fill="#FFFFFF" stroke="#12151C" stroke-width="1.5"/></g><g transform="translate(191,37.9) rotate(45) scale(0.48)"><path d="M32,-18 C26,-36 10,-44 -6,-43 C-28,-42 -44,-26 -44,-4 C-44,8 -40,18 -33,25 L-28,17 C-24,29 -20,35 -10,36 C8,39 26,26 32,8 C34,0 34,-10 32,-18 Z" fill="#12151C"/><path d="M32,-18 C26,-36 10,-44 -6,-43 C-28,-42 -44,-26 -44,-4 C-43,4 -41,10 -38,15 C-34,0 -24,-12 -8,-19 C6,-25 24,-24 32,-18 Z" fill="#4F46E5"/><path d="M32,-20 L40,-18 C54,-16 66,-10 76,0 L72,6 C56,10 42,11 30,10 C30,0 31,-10 32,-20 Z" fill="#12151C"/><path d="M31,-2 C45,0 60,1 73,3" fill="none" stroke="#FFFFFF" stroke-width="2.5" stroke-linecap="round"/><circle cx="4" cy="-10" r="12" fill="#FFFFFF"/><circle cx="4" cy="-10" r="8.5" fill="#4F46E5"/><circle cx="4" cy="-10" r="3.8" fill="#12151C"/><circle cx="7.5" cy="-13.5" r="1.8" fill="#FFFFFF"/></g></svg><text x="90" y="300" font-family="IBM Plex Sans, sans-serif" font-size="47" font-weight="600" fill="#12151C">An intelligent messaging protocol</text><text x="90" y="356" font-family="IBM Plex Sans, sans-serif" font-size="47" font-weight="600" fill="#12151C">for agentic systems</text><text x="92" y="410" font-family="IBM Plex Mono, monospace" font-size="21" fill="#646B7C">adaptive publish–subscribe · Active Inference control</text><text x="92" y="444" font-family="IBM Plex Mono, monospace" font-size="21" fill="#646B7C">Department of Computer and Systems Sciences, Stockholm University</text></svg>
